<svg xmlns="http://www.w3.org/2000/svg" width="4266.667" height="2133.333">
    <style>
        <![CDATA[.B{fill:#233862}.C{fill:#f1a34f}.D{fill:#ffb27d}.E{fill:#2b478b}.F{fill:#e58638}.G{fill:#ce8032}.H{fill:#ee9849}.I{fill:#e89746}]]></style>
    <path
        d="M3810.444 1939.961l-830.266-.253-705.029-.2-97.105-.027-1644.339-.493s-86.696-214.36-63.463-446.157c2.897-28.987 7.517-58.253 14.254-87.401.024-.095.035-.172.064-.253 4.131-17.895 9.057-35.748 14.868-53.468 24.58-74.966 64.964-147.591 127.877-211.08 381.479-384.984 874.45-63.182 1059.435-72.561 184.96-9.391 195.399-378.785 748.081-422.903 306.553-24.464 635.625 32.791 741.913 289.88 41.872 101.312 49.151 233.64 6.829 404.226-24.623 99.213-3.497 159.905 43.456 199.225 97.545 81.68 306.624 71.119 449.184 121.974 106.217 37.879 175.501 109.866 134.242 279.491"
        fill="#ebf2f9"/>
    <path
        d="M3227.022 1538.496L830.436 1849.854c-21.746-78.759-32.92-164.291-27.301-255.438l2373.602-659.37c41.852 101.309 49.158 233.638 6.83 404.225-24.628 99.212-3.504 159.906 43.456 199.224m-1002.209-482.433L470.24 1492.83c2.899-28.985 7.518-58.252 14.254-87.4.025-.093.037-.173.064-.253 4.13-17.894 9.056-35.747 14.868-53.467l1725.388-295.649"
        fill="#f8fbff"/>
    <path
        d="M2178.066 1939.507l-1644.359-.52s-109.737-271.334-49.211-533.561l.064-.253c101.605-4.733 268.535 7.213 444.265 107.146 277.515 157.814 733.133 42.347 865.006 130.867 131.86 88.532 162.139 180.186 260.205 195.947 85.546 13.733 117.335 82.919 124.016 100.346.013.013.013.013.013.027"
        fill="#c9e0f2"/>
    <path
        d="M2841.492 875.833c0-25.33 20.533-45.863 45.87-45.863s45.87 20.533 45.87 45.863-20.533 45.865-45.87 45.865-45.87-20.534-45.87-45.865"
        fill="#f8fbff"/>
    <path
        d="M2680.387 1808.549c45.526-14.281 104.102-37.507 72.243-54.947-34.114-18.68-77.624 20.959-101.198 47.186l-3.69-.572c-6.03-.868-12.146-1.268-18.33-1.295 44.962-72.065 95.1-167.999 52.393-180.197-46.004-13.147-78.974 103.506-95.253 185.211-44.979 9.759-93.374 31.586-143.786 46.134-17.8-64.786-58.799-161.4-144.725-159.266-90.231 2.24 22.413 107.105 98.311 169.958-16.963 2.747-34.097 4.067-51.368 3.268-110.338-5.133-179.454 69.652-179.454 69.652h592.533c22.259-35.279-11.445-100.318-77.675-125.131"
        fill="#a8d29f"/>
    <path
        d="M1676.196 354.191s-41.307-45.053-54.067-46.56-65.32 23.68-68.333 33.613c-3 9.933 57.827-9.933 61.2 0 3.387 9.933 7.133 16.693 24.4 17.453 17.28.747 32.293 10.507 32.293 10.507l4.507-15.013"
        class="D"/>
    <path
        d="M1725.742 1933.68c-13.12-8.013-5.653-67.76-5.653-67.76s61.147-48.92 69.546-11.467c8.413 37.453 58.093 54.267 86.373 58.853 19.533 3.16 25.573 13.973 27.44 20.373h-177.706"
        class="B"/>
    <path
        d="M1714.782 1895.707c-15.667-5.92-102.92-215.359-99.28-283.373.427-8.067-1.147-74.24-3.64-87.946-1.933-10.68-4.533-23.133-7.64-36.933-4.773-21.013-10.72-45.2-17.347-71.16l-58.48-228.646c29.253-65.596 66.733-123.01 101.12-142.616 24.533 2.993 48.187 7.527 65.707 11.317 13.96 8.196 24.387 15.216 32.133 21.2 2.72 13.6 6.693 36.288 9.907 65.504a885.85 885.85 0 0 1 4.613 65.015c5.827 170.133-23.92 354.999 51.92 656.745 2.133 8.413-54.747 40.04-79.013 30.893"
        class="E"/>
    <path
        d="M1737.262 1143.054c-12.64 63.256-43.053 198.441-150.386 273.241l-58.48-228.646c29.253-65.596 66.733-123.01 101.12-142.616 24.533 2.993 48.187 7.527 65.707 11.317 13.96 8.196 24.387 15.216 32.133 21.2 2.72 13.6 6.693 36.288 9.907 65.504"
        class="B"/>
    <path
        d="M1605.303 547.951l-.053 10.613s2.88 33.187-37.973 38.027c-40.867 4.867-71.826-12.933-70.72-38.547 3.68-19.827 7.72-33.44 8-49.84.093-6.107-.32-12.573-1.453-19.88l79.173-1.573 23.333 3.813-.307 57.387"
        class="D"/>
    <path
        d="M1605.609 490.564l-.307 57.387a66.86 66.86 0 0 1-28.547 6.307c-36.387 0-59.907-26.693-72.2-46.053.093-6.107-.32-12.573-1.453-19.88l79.173-1.573 23.333 3.813"
        fill="#e8945b"/>
    <path
        d="M1610.223 518.444s-101.4 20.493-113.186-42.853-32.813-103.373 31.427-119.133c64.253-15.76 81.373 6.067 90.44 26.253 9.08 20.187 17.4 128.773-8.68 135.733"
        class="D"/>
    <path
        d="M1537.209 1933.68s-5.533-30.32-14.32-47.88c-8.773-17.547-64.613-6.373-64.613-6.373s-11.173 9.573-13.573 54.253h92.506"
        class="B"/>
    <path
        d="M1646.649 1078.56s-55.587 247.671-73.413 359.468c-6.667 41.827-20.56 175.84-22.72 218.133-2.987 58.053-22.12 235.719-22.12 235.719s-32.293-20.4-80.2-1.36c0 0-12.093-79.64-19.8-246.439-2.253-48.907 7.2-122.346 6.053-146.2-5.64-117.306-43.12-420.595-13.32-440.059 29.787-19.463 225.519 20.737 225.519 20.737"
        class="E"/>
    <path
        d="M1638.623 335.658s-28.28-2.187-61.627-16.68c-27.08-11.773-61.227 1.187-72.32 7.027.293-1.787 1.013-4.227 2.707-6.667 0 0-4.973 3.533-5.72 8.467-.507.373-.733.64-.6.72 0 0-5.64-1.027-9.267.6 0 0 2.533-.36 3.44 1.267.093.173.24.32.4.453-42.227 20.4-46.12 87.146-32.533 102.586 16.347 18.587 35.947 60.413 35.947 60.413s7.16-9.88 4.187-26.227 11.147-16.347 28.987-23.787c17.827-7.427 2.973-28.24 18.573-40.867 15.613-12.64 72.826-5.213 72.093-14.867 21.24-7.733 15.733-50.267 15.733-52.44"
        class="B"/>
    <path
        d="M1665.689 332.271s-8.533 3.467-13.667 15.547c-6.56 15.453-1.213 23.88-1.213 23.88s107.32 97.333 100.333 115.053c-3.64 9.253-86.786 58.013-121.333 77.96-14.213-1.187-25.2-1.093-25.56-1.093l-.013.027s-23.507 71.613-107.666-5.587c-14.787 21.507-129.386 74.32-109.48 165.466 4.68 21.413 8.72 41.613 12.2 60.68 23.653 129.138 21.8 205.325 17.187 247.343-3.587 32.789-17.187 36.089-5.013 44.813 0 0 23.667 10.609 67.946 19.784 32.92 6.82 77.213 12.877 131.64 13.22 86.586.545 119.346-29.287 119.346-29.287 22.933-22.416-22.413-110.624-18.787-174.297 1.867-32.665-.173-144.497-.507-195.884.013 0 .027-.013.04-.027.013-.027.04-.04.067-.08 4.16-4.547 130.813-143.906 155.746-223.013 0-.013.027-.013.027-.027 1.24-4 2.24-7.827 2.947-11.48 7.573-38.933-204.239-143-204.239-143"
        class="H"/>
    <path
        d="M1416.476 1031.547c4.613-42.019 6.467-118.205-17.187-247.343l4.813-14.787c7.173-21.293 37.64-20.227 43.267 1.52 17.48 67.573 33.213 182.438-30.893 260.61"
        class="F"/>
    <path
        d="M1390.623 960.943s52.64-31.821 68.96-27.787c16.307 4.033 51.707 19.417 49.507 28.823-2.187 9.407-43.307 15.824-50.453 14.717-7.16-1.107-18.707.192-23.4 4.235-4.68 4.044-41.987 5.553-46.533-5.367-4.56-10.92 1.92-14.621 1.92-14.621"
        class="D"/>
    <path
        d="M1496.556 558.044s-64.533 4.68-99.586 25.227c-22.693 13.307-154.153 222.766-154.153 253.594s138.046 140.197 138.046 140.197 25.627 8.512 26.533-32.292c0 0-68.866-101.794-65.24-113.584 2.28-7.405 103.773-88.822 103.773-88.822l50.627-184.32"
        class="H"/>
    <path
        d="M1866.955 486.777c-24.933 79.106-151.586 218.466-155.746 223.013-.027.04-.053.053-.067.08-.013.013-.04.027-.04.027s0-.013-.013-.027c-.36-1.4-10.813-41.267 14.12-69.773 25.4-29.013 113-101.733 141.746-153.32m-394.732 83.2c-.267-5.587 26.213-13.32 26.213-13.32s30.32 42.027 80.253 42.76c0 0-14.227 27.693-31 34.867 0 0-73.813-31.107-75.466-64.307m106.466 28.453s26.467-15.68 26.56-32.68c0 0 17.08-2.147 24.547 6.147 0 0 6.267 29.133-2.053 46.067 0 0-38.093-5.813-49.053-19.533"
        class="F"/>
    <path
        d="M1670.676 993.245c-.507 13.729-6.107 26.785-15.72 36.616l-15.107 15.449c-3.787 3.883-10.08 3.7-13.653-.38l-20.96-23.939c-5.627-6.419-8.547-14.763-8.187-23.285l3.28-90.84c.747-28.58 1.093-56.328.347-73.157-2.373-53.733-21.973-224.453-21.973-224.453h12.907s35.453 64.813 56.933 154.4c5.293 22.053 9.72 45.589 12.587 70.053 0 0 11.813 97.477 9.547 159.536"
        fill="#c65447"/>
    <path
        d="M1560.729 595.91l35.88-8.6s4.693.413 4.56 6.253-10.107 22.92-14.52 24.28c-4.427 1.373-34.4-10.107-25.92-21.933"
        fill="#ba4c43"/>
    <g class="H">
        <path
            d="M1472.223 561.817c-.267-5.6 26.213-13.32 26.213-13.32s30.32 42.027 80.253 42.76c0 0-14.227 27.693-31 34.867 0 0-73.813-31.107-75.466-64.307"/>
        <path
            d="M1578.689 591.257s26.467-15.693 26.56-32.693c0 0 17.08-2.133 24.547 6.147 0 0 6.267 29.147-2.053 46.067 0 0-38.093-5.8-49.053-19.52"/>
    </g>
    <path
        d="M1670.676 993.245c-.507 13.729-6.107 26.785-15.72 36.616l-15.107 15.449c-3.787 3.883-10.08 3.7-13.653-.38l-20.96-23.939c-5.627-6.419-8.547-14.763-8.187-23.285l3.28-90.84c33.507-41.836 45.04-97.838 48.213-143.21 5.293 22.053 9.72 45.589 12.587 70.053 0 0 11.813 97.477 9.547 159.536"
        fill="#ba4c43"/>
    <path
        d="M1347.93 1933.68h-219.439c-11.968 0-21.761-9.8-21.761-21.773v-147.426c0-11.973 9.793-21.76 21.761-21.76h219.439c11.96 0 21.76 9.787 21.76 21.76v147.426c0 11.973-9.8 21.773-21.76 21.773"
        class="B"/>
    <path
        d="M1349.743 1764.481v147.44c0 11.973-9.8 21.76-21.765 21.76h-219.435c-11.968 0-21.761-9.787-21.761-21.76v-147.44c0-11.973 9.793-21.76 21.761-21.76h219.435c11.965 0 21.765 9.787 21.765 21.76"
        class="E"/>
    <path
        d="M1170.316 1742.721c14.039-16.587 32.321-23.12 44.017-23.12 28.613 0 44.585 22.253 45.185 23.12l-6.971.467c-.512-.733-11.832-14.973-36.553-14.973-10.16 0-25.067.04-37.307 14.507-.792.933-8.543.2-8.372 0m179.428 27.799v42.853c0 11.973-9.8 21.773-21.765 21.773h-219.435c-11.968 0-21.761-9.8-21.761-21.773v-42.853c0-11.96 9.793-21.76 21.761-21.76h219.435c11.965 0 21.765 9.8 21.765 21.76"
        class="B"/>
    <path
        d="M1349.743 1764.481v42.853c0 11.973-9.8 21.76-21.765 21.76h-219.435c-11.968 0-21.761-9.787-21.761-21.76v-42.853c0-11.973 9.793-21.76 21.761-21.76h219.435c11.965 0 21.765 9.787 21.765 21.76"
        class="E"/>
    <path
        d="M1207.682 1812.241a6.65 6.65 0 0 1 6.649-6.653 6.65 6.65 0 0 1 6.649 6.653c0 3.667-2.976 6.64-6.649 6.64s-6.649-2.973-6.649-6.64"
        class="B"/>
    <path
        d="M3810.444 1939.961l-830.266-.253-1.087-.2s73.111-100.733 215.554-100.373c142.395.362 140.623-73.532 327.158-119.547 55.223-13.611 107.777-35.306 154.399-59.118 106.217 37.879 175.501 109.866 134.242 279.491"
        fill="#a8d29f"/>
    <path
        d="M2564.375 740.815V1914.48c0 10.561-8.055 19.2-17.888 19.2h-17.919c-4.893 0-9.361-2.146-12.586-5.613-3.272-3.48-5.302-8.307-5.302-13.586V740.815c0-6.895 3.43-12.967 8.543-16.34 2.722-1.817 5.931-2.862 9.345-2.862h17.919c9.833 0 17.888 8.631 17.888 19.201"
        class="C"/>
    <path
        d="M2524.494 738.062v1173.659c0 6.892-3.407 12.972-8.518 16.346-3.268-3.48-5.297-8.306-5.297-13.586V740.815c0-6.895 3.423-12.966 8.549-16.338 3.237 3.468 5.266 8.286 5.266 13.586"
        class="F"/>
    <path d="M2319.52 1198.838l-99.051 66.766 89.822 78.756 222.31-14.023v-89.803l-213.08-41.696" class="C"/>
    <path
        d="M2517.748 1252.805c-1.022 2.736-.697 6.548.712 8.513 1.425 1.966 3.375 1.341 4.397-1.395 1.006-2.738.681-6.551-.728-8.515s-3.375-1.341-4.382 1.397m.001 53.1c-1.022 2.739-.697 6.55.712 8.515 1.425 1.965 3.375 1.338 4.397-1.397 1.006-2.738.681-6.548-.728-8.516s-3.375-1.338-4.382 1.398"
        class="G"/>
    <path d="M2892.145 1017.42l154.796 66.644-148.851 79.045-356.193-12.373v-111.185l350.249-22.131" class="C"/>
    <path d="M2892.14 1017.423h22.484l154.789 66.644h-22.484l-154.789-66.644" class="I"/>
    <path
        d="M2898.072 1163.111h11.995l159.346-79.044h-22.484l-148.857 79.044m-332.874-106.874c1.307 3.511.897 8.402-.913 10.923-1.826 2.521-4.346 1.718-5.637-1.792-1.307-3.511-.897-8.402.929-10.924 1.811-2.522 4.33-1.718 5.621 1.793m0 68.121c1.307 3.511.897 8.402-.913 10.924-1.826 2.522-4.346 1.718-5.637-1.793-1.307-3.511-.897-8.402.929-10.921 1.811-2.524 4.33-1.721 5.621 1.79"
        class="G"/>
    <path d="M2191.631 824.625l-154.79 66.646 148.833 79.045 356.206-12.376V846.756l-350.249-22.132" class="C"/>
    <path d="M2191.627 824.627h-22.481l-154.785 66.644h22.481l154.785-66.644" class="I"/>
    <path
        d="M2185.694 970.309h-11.988l-159.328-79.046h22.474l148.842 79.046m332.876-106.866c-1.286 3.511-.868 8.402.945 10.924 1.798 2.522 4.309 1.717 5.626-1.792 1.286-3.512.883-8.404-.93-10.924s-4.324-1.719-5.642 1.792m.001 68.123c-1.286 3.512-.868 8.402.945 10.923 1.798 2.523 4.309 1.719 5.626-1.79 1.286-3.512.883-8.404-.93-10.924s-4.324-1.719-5.642 1.792"
        class="G"/>
    <path d="M2319.506 1198.843h-12.821l-105.203 67.357h18.969l99.056-67.357" class="I"/>
    <path d="M2310.291 1344.36h-17.278l-91.519-78.164h18.964l89.832 78.164" class="G"/>
    <path
        d="M2604.234 1801.228v132.452h-133.407v-132.972c0-24.68 18.725-44.959 42.738-47.44 1.63-.16 3.275-.252 4.953-.252h37.514c26.633 0 48.202 21.586 48.202 48.213"
        class="C"/>
    <path
        d="M2556.768 1801.228v132.452h-85.942v-132.972c0-24.68 18.729-44.96 42.744-47.44 24.281 2.507 43.198 23.027 43.198 47.961m-13.055-1116.852v-4.621h-11.782l.016.075c-3.219.308-6 1.602-8.344 3.891-2.719 2.645-4.078 5.902-4.078 9.771 0 3.744 1.391 6.968 4.172 9.676 2.766 2.708 6.016 4.063 9.766 4.063h10.251v-4.619c2.188-2.522 3.297-5.558 3.297-9.119s-1.109-6.594-3.297-9.116m22.642-112.598c-8.387-7.091-18.816-10.641-31.334-10.641-8.008 0-15.604 1.839-22.836 5.514-7.216 3.676-12.834 8.872-16.838 15.575-2.453 4.132-3.671 8.258-3.671 12.385 0 3.227.997 5.903 2.991 8.031 2.01 2.129 4.558 3.192 7.659 3.192h10.255l-.142-6.48 7.09-9.579c3.751-3.74 8.72-5.612 14.907-5.612 5.286 0 9.717 1.451 13.262 4.354s5.317 7 5.317 12.287c0 6.064-1.867 10.772-5.618 14.124-2.706 2.453-7.359 4.713-13.926 6.773-4.906 1.549-8.166 3.129-9.78 4.741s-2.405 4.034-2.405 7.257v19.348c0 3.871 1.029 7.094 3.086 9.676 2.073 2.581 4.969 3.869 8.704 3.869h10.255v-5.862c.475-.918.87-1.907 1.171-3.038.522-2.06.775-7.352.775-15.868 10.587-2.064 18.927-6.609 25.067-13.64 6.109-7.031 9.179-15.897 9.179-26.607 0-12.254-4.384-22.185-13.167-29.799"
        class="F"/>
    <path
        d="M2557.274 693.488c0 3.87-1.287 7.127-3.861 9.771-2.59 2.642-5.799 3.966-9.692 3.966-3.734 0-6.991-1.354-9.755-4.063-2.78-2.709-4.179-5.929-4.179-9.674 0-3.87 1.366-7.126 4.067-9.77 2.717-2.644 6.006-3.969 9.867-3.969 3.893 0 7.102 1.325 9.692 3.969 2.574 2.644 3.861 5.899 3.861 9.77zm32.507-91.912c0 10.71-3.066 19.576-9.183 26.606-6.133 7.032-14.49 11.578-25.056 13.64 0 8.516-.27 13.808-.779 15.869-1.541 5.934-5.354 8.899-11.424 8.899-3.734 0-6.641-1.287-8.707-3.869s-3.098-5.804-3.098-9.674v-19.35c0-3.222.81-5.642 2.431-7.256 1.605-1.613 4.862-3.192 9.755-4.741 6.594-2.061 11.233-4.32 13.934-6.773 3.75-3.352 5.624-8.06 5.624-14.123 0-5.289-1.779-9.385-5.323-12.288s-7.976-4.355-13.251-4.355c-6.196 0-11.169 1.873-14.919 5.613l-7.722 10.448c-2.717 3.743-5.879 5.612-9.485 5.612-3.098 0-5.64-1.065-7.642-3.192s-3.003-4.806-3.003-8.031c0-4.128 1.239-8.252 3.67-12.385 4.004-6.703 9.612-11.9 16.842-15.577s14.824-5.512 22.847-5.512c12.504 0 22.958 3.549 31.332 10.64 8.77 7.614 13.155 17.545 13.155 29.798"
        class="C"/>
    <path
        d="M337.051 1934.494l624.214 4.08s-57.719-116.04-200.945-91.213c-90.396 15.667-120.337-7.96-157.532-31.133 68.865-26.067 170.884-69.12 123.394-79.533-45.317-9.947-107.096 34.2-145.13 67-7.957-4.08-16.628-7.893-26.447-11.16 81.41-76.04 234.627-227.639 166.949-231.973-66.4-4.227-150.432 145.76-190.414 225.799-4.604-.92-9.435-1.72-14.521-2.387-20.715-2.747-40.037 1.013-57.755 8.853-8.821-33.213-25.123-71.2-46.787-63.453-21.868 7.8 2.856 46.293 25.551 75.213-62.873 41.787-100.578 129.906-100.578 129.906"
        fill="#82b378"/>
</svg>
