<?xml version="1.0" encoding="utf-8"?>
<!-- Generator: Adobe Illustrator 15.1.0, SVG Export Plug-In . SVG Version: 6.00 Build 0)  -->
<!DOCTYPE svg PUBLIC "-//W3C//DTD SVG 1.1//EN" "http://www.w3.org/Graphics/SVG/1.1/DTD/svg11.dtd">
<svg version="1.1" id="Layer_1" xmlns="http://www.w3.org/2000/svg" xmlns:xlink="http://www.w3.org/1999/xlink" x="0px" y="0px"
	 width="1513px" height="386px" viewBox="0 0 1513 386" enable-background="new 0 0 1513 386" xml:space="preserve">
<rect x="1859.996" y="241.668" fill="#FF931E" width="0.667" height="2"/>
<path fill="#D4E6FC" d="M0,386.5h1513V253.85c-73.782-11.59-182.282-35.775-235.414-25.385
	c-81.168,15.872-143.445,3.164-208.025-3.902c-136.943-14.982-174.449-94.208-451.246-100.517
	c-96.388-2.197-162.125-18.126-271.533-39.548C269.178,69.304,196.854,0.145,98.675,28.473C74.128,35.555,39.539,45.34,0,55.266
	V386.5z"/>
<g>
	<g>
		<polygon fill="#D4E6FC" points="1346.912,107.5 1338.782,107.5 1334.577,277.5 1350.277,277.5 		"/>
		<polygon fill="#D4E6FC" points="1360.368,109.297 1356.122,116.025 1324.15,113.547 1324.553,91.848 1357.524,94.72 		"/>
		<path fill="#D4E6FC" d="M1325,94.508c-8,0.518-13.455,3.991-13.455,8.201c0,4.211,5.455,7.684,13.455,8.202V94.508z"/>
		<polygon fill="#D4E6FC" points="1293.405,220.872 1320.878,109.017 1313.31,104.812 1292.004,220.031 		"/>
		<polygon fill="#D4E6FC" points="1323.402,103.41 1373.582,31.644 1372.181,26.037 1317.234,97.523 		"/>
		<polygon fill="#D4E6FC" points="1314.15,99.765 1308.825,40.895 1311.348,36.97 1322.561,93.318 		"/>
	</g>
	<g>
		<polygon fill="#D4E6FC" points="1431.459,98.5 1422.879,98.5 1418.441,277.5 1435.01,277.5 		"/>
		<g>
			<circle fill="#D4E6FC" cx="1408.98" cy="101.753" r="7.674"/>
			<polygon fill="#D4E6FC" points="1406.175,98.197 1406.922,1.995 1413.099,4.24 1419.181,88.09 1410.058,98.572 			"/>
			<polygon fill="#D4E6FC" points="1405.018,106.075 1321.33,153.528 1320.188,147.057 1389.762,99.864 1403.4,102.525 			"/>
			<polygon fill="#D4E6FC" points="1415.621,102.52 1498.562,151.269 1493.527,155.494 1417.871,118.838 1413.355,105.695 			"/>
		</g>
		<polygon fill="#D4E6FC" points="1409.168,90.336 1408.794,113.544 1437.242,117.288 1445.852,109.801 1443.98,94.828 		"/>
	</g>
</g>
</svg>
